<?xml version="1.0" encoding="UTF-8"?>
<!-- Generator: Adobe Illustrator 23.0.4, SVG Export Plug-In . SVG Version: 6.00 Build 0)  -->
<svg version="1.1" id="Livello_1" xmlns="http://www.w3.org/2000/svg" xmlns:xlink="http://www.w3.org/1999/xlink" x="0px" y="0px" viewBox="0 0 2000 2000" style="enable-background:new 0 0 2000 2000;" xml:space="preserve">
<style type="text/css">
	.st0{fill:none;}
	.st1{fill:#2A96D4;}
	.st2{fill:#DE3D8E;}
	.st3{fill:#F59B1A;}
	.st4{fill:#E61D52;}
</style>
<g>
	<path class="st0" d="M1656.08,346c-174.9-174.91-407.45-271.23-654.8-271.23c-247.35,0-479.9,96.32-654.8,271.23   C171.57,520.91,75.25,753.45,75.25,1000.8c0,247.35,96.32,479.9,271.23,654.8c174.9,174.9,407.45,271.23,654.8,271.23   c247.35,0,479.9-96.32,654.8-271.23s271.23-407.45,271.23-654.8S1830.98,520.91,1656.08,346z M486.82,709   c4.97-108.06,92.48-195.58,200.54-200.55c123.95-5.7,226.02,96.37,220.32,220.32c-4.97,108.06-92.48,195.57-200.54,200.54   C583.19,935.01,481.12,832.94,486.82,709z M924.69,1364.14L767.73,1521.1c-38.92,38.92-102.03,38.92-140.95,0l-156.97-156.97   c-38.92-38.92-38.92-102.03,0-140.95l156.97-156.97c38.92-38.92,102.03-38.92,140.95,0l156.97,156.97   C963.61,1262.11,963.61,1325.22,924.69,1364.14z M1090.99,607.89c0-55.04,44.62-99.67,99.67-99.67h221.98   c55.04,0,99.67,44.62,99.67,99.67v221.98c0,55.04-44.62,99.67-99.67,99.67h-221.98c-55.04,0-99.67-44.62-99.67-99.67V607.89z    M1513.89,1224.49l-132.43,229.37c-35.47,61.43-124.14,61.43-159.61,0l-132.43-229.37c-35.47-61.43,8.87-138.23,79.81-138.23   h264.86C1505.02,1086.27,1549.35,1163.06,1513.89,1224.49z"/>
	<path class="st1" d="M707.14,929.31c108.06-4.97,195.57-92.48,200.54-200.54c5.7-123.95-96.38-226.02-220.32-220.32   C579.3,513.42,491.78,600.93,486.82,709C481.12,832.94,583.19,935.01,707.14,929.31z"/>
	<path class="st2" d="M1190.66,929.54h221.98c55.04,0,99.67-44.62,99.67-99.67V607.89c0-55.04-44.62-99.67-99.67-99.67h-221.98   c-55.04,0-99.67,44.62-99.67,99.67v221.98C1090.99,884.92,1135.61,929.54,1190.66,929.54z"/>
	<path class="st3" d="M767.73,1066.22c-38.92-38.92-102.03-38.92-140.95,0l-156.97,156.97c-38.92,38.92-38.92,102.03,0,140.95   l156.97,156.97c38.92,38.92,102.03,38.92,140.95,0l156.97-156.97c38.92-38.92,38.92-102.03,0-140.95L767.73,1066.22z"/>
	<path class="st4" d="M1434.08,1086.27h-264.86c-70.94,0-115.27,76.79-79.81,138.23l132.43,229.37   c35.47,61.43,124.14,61.43,159.61,0l132.43-229.37C1549.35,1163.06,1505.02,1086.27,1434.08,1086.27z"/>
	<path d="M1706.38,295.7C1518.04,107.36,1267.63,3.64,1001.28,3.64c-266.35,0-516.76,103.72-705.1,292.06   C107.83,484.04,4.11,734.45,4.11,1000.8s103.72,516.76,292.06,705.1c188.34,188.34,438.75,292.06,705.1,292.06   c266.35,0,516.76-103.72,705.1-292.06c188.34-188.34,292.06-438.75,292.06-705.1S1894.72,484.04,1706.38,295.7z M1656.08,1655.6   c-174.9,174.9-407.45,271.23-654.8,271.23c-247.35,0-479.9-96.32-654.8-271.23c-174.91-174.9-271.23-407.45-271.23-654.8   c0-247.35,96.32-479.9,271.23-654.8c174.9-174.91,407.45-271.23,654.8-271.23c247.35,0,479.9,96.32,654.8,271.23   c174.9,174.9,271.23,407.45,271.23,654.8S1830.98,1480.7,1656.08,1655.6z"/>
</g>
</svg>